<svg width="127" height="21" viewBox="0 0 127 21" fill="none" xmlns="http://www.w3.org/2000/svg">
<path d="M1.58612 10.7582C0.789848 10.9868 0.329648 11.8176 0.55823 12.6139C0.786812 13.4102 1.61762 13.8704 2.41388 13.6418L1.58612 10.7582ZM118.236 9.10189C119.044 9.28361 119.846 8.7757 120.028 7.96745C120.21 7.1592 119.702 6.35667 118.894 6.17496L118.236 9.10189ZM2.41388 13.6418C22.3678 7.91367 63.1384 -3.28539 118.236 9.10189L118.894 6.17496C63.0595 -6.37804 21.7033 4.98324 1.58612 10.7582L2.41388 13.6418Z" fill="#FFAE00"/>
<path opacity="0.16" d="M9.66435 17.8863C9.04927 18.0643 8.69492 18.7072 8.87288 19.3223C9.05085 19.9373 9.69373 20.2917 10.3088 20.1137L9.66435 17.8863ZM125.496 15.5346C126.121 15.6758 126.741 15.2839 126.882 14.6594C127.024 14.0348 126.632 13.4141 126.007 13.2729L125.496 15.5346ZM10.3088 20.1137C30.1422 14.3745 70.6936 3.14577 125.496 15.5346L126.007 13.2729C70.6315 0.754442 29.6245 12.1105 9.66435 17.8863L10.3088 20.1137Z" fill="#A5A3A3"/>
</svg>
