<svg width="15" height="12" viewBox="0 0 15 12" fill="none" xmlns="http://www.w3.org/2000/svg">
<path d="M6.08405 0.257201L11.3581 8.47493C11.4756 8.65898 11.4643 8.89461 11.3256 9.06694C10.6993 9.84768 10.0643 10.5452 9.53048 11.0106C9.53048 11.0106 9.10295 11.4115 8.83169 11.585C8.46167 11.8652 7.9779 12 7.50788 12C6.98035 12 6.48157 11.8523 6.0828 11.558C6.01155 11.4912 5.69778 11.2368 5.44152 10.9965C3.84644 9.59447 1.21131 5.93459 0.412521 4.00969C0.283764 3.72952 0.0150007 2.9816 0 2.59357C0 2.21961 0.0850043 1.85855 0.271264 1.51155C0.527526 1.08484 0.925046 0.750734 1.39632 0.563168C1.72384 0.442423 2.70639 0.256029 2.73514 0.256029C3.43642 0.135284 4.42147 0.0450175 5.57153 0.000470628C5.77779 -0.00773538 5.9778 0.091909 6.08405 0.257201Z" fill="#497BF1"/>
<path opacity="0.4" d="M8.92484 0.807025C8.69108 0.444788 8.98984 -0.0112316 9.43861 0.00635273C10.4912 0.0497274 11.4187 0.124754 12.1087 0.216192C12.1237 0.23026 13.3476 0.416653 13.7613 0.631182C14.5301 1.00514 15.0001 1.73899 15.0001 2.52794V2.59359C14.9864 3.10236 14.5164 4.18438 14.4876 4.18438C14.2514 4.7295 13.8513 5.44108 13.3701 6.20658C13.1525 6.55123 12.6188 6.55944 12.3975 6.21478L8.92484 0.807025Z" fill="#497BF1"/>
</svg>
