<svg width="26" height="18" viewBox="0 0 26 18" fill="none" xmlns="http://www.w3.org/2000/svg">
<path d="M12.9427 11.8574C9.06144 11.8574 5.78662 12.4916 5.78662 14.9394C5.78662 17.3881 9.0826 18 12.9427 18C16.8239 18 20.0987 17.3658 20.0987 14.9181C20.0987 12.4693 16.8028 11.8574 12.9427 11.8574Z" fill="white" fill-opacity="0.6"/>
<path opacity="0.4" d="M12.9427 9.52541C15.5708 9.52541 17.6782 7.40595 17.6782 4.7627C17.6782 2.11845 15.5708 0 12.9427 0C10.3146 0 8.20728 2.11845 8.20728 4.7627C8.20728 7.40595 10.3146 9.52541 12.9427 9.52541Z" fill="white" fill-opacity="0.6"/>
<path opacity="0.4" d="M23.2239 5.87168C23.9038 3.19703 21.9103 0.794907 19.3719 0.794907C19.0959 0.794907 18.8319 0.8253 18.5741 0.87697C18.5398 0.885075 18.5015 0.902298 18.4814 0.932692C18.4582 0.97119 18.4753 1.02286 18.5005 1.05629C19.2631 2.13223 19.7013 3.4422 19.7013 4.84842C19.7013 6.19588 19.2993 7.45216 18.5942 8.49466C18.5217 8.60205 18.5862 8.74693 18.7141 8.76922C18.8914 8.80062 19.0727 8.81684 19.258 8.8219C21.1065 8.87053 22.7656 7.67403 23.2239 5.87168Z" fill="white" fill-opacity="0.6"/>
<path d="M25.1603 12.1691C24.8219 11.4437 24.0049 10.9462 22.7629 10.7021C22.1766 10.5582 20.5901 10.3556 19.1144 10.3829C19.0922 10.386 19.0801 10.4012 19.0781 10.4113C19.0751 10.4255 19.0811 10.4498 19.1103 10.465C19.7923 10.8044 22.4285 12.2805 22.0971 15.3938C22.083 15.5286 22.1907 15.6451 22.3247 15.6248C22.9734 15.5316 24.6426 15.171 25.1603 14.0474C25.4464 13.4537 25.4464 12.7638 25.1603 12.1691Z" fill="white" fill-opacity="0.6"/>
<path opacity="0.4" d="M7.42547 0.87726C7.1686 0.824577 6.90367 0.795197 6.62766 0.795197C4.0892 0.795197 2.09569 3.19732 2.77665 5.87197C3.23397 7.67432 4.89304 8.87082 6.74149 8.82219C6.92684 8.81713 7.10917 8.7999 7.28545 8.76951C7.41338 8.74722 7.47785 8.60234 7.40532 8.49495C6.70019 7.45143 6.29827 6.19617 6.29827 4.84871C6.29827 3.44148 6.73746 2.13151 7.50001 1.05658C7.52418 1.02315 7.54232 0.97148 7.51814 0.932982C7.49799 0.901575 7.46072 0.885365 7.42547 0.87726Z" fill="white" fill-opacity="0.6"/>
<path d="M3.23675 10.7018C1.99471 10.9459 1.17878 11.4434 0.840316 12.1688C0.553228 12.7635 0.553228 13.4534 0.840316 14.0481C1.35808 15.1707 3.02723 15.5323 3.67594 15.6245C3.80992 15.6448 3.9167 15.5293 3.90259 15.3935C3.57118 12.2812 6.20736 10.8051 6.89033 10.4657C6.91853 10.4495 6.92458 10.4262 6.92156 10.411C6.91954 10.4009 6.90846 10.3857 6.8863 10.3836C5.40956 10.3553 3.82402 10.5579 3.23675 10.7018Z" fill="white" fill-opacity="0.6"/>
</svg>
