<svg width="67" height="67" viewBox="0 0 67 67" fill="none" xmlns="http://www.w3.org/2000/svg">
<path opacity="0.4" d="M48.0149 67H18.9817C7.6276 67 0 59.0367 0 47.1823V19.821C0 7.96668 7.6276 0 18.9817 0H48.0183C59.3724 0 67 7.96668 67 19.821V47.1823C67 59.0367 59.3724 67 48.0149 67Z" fill="#7FA8F6" fill-opacity="0.5"/>
<path fill-rule="evenodd" clip-rule="evenodd" d="M30.9712 22.3613C30.9712 26.9508 27.2359 30.686 22.6464 30.686C18.0536 30.686 14.3217 26.9508 14.3217 22.3613C14.3217 17.7718 18.0536 14.0332 22.6464 14.0332C27.2359 14.0332 30.9712 17.7718 30.9712 22.3613ZM58.2916 40.4935C59.0722 41.2506 59.6316 42.1149 60.0001 43.0361C61.1157 45.8233 60.5361 49.1733 59.3435 51.9337C57.9298 55.2201 55.223 57.7024 51.8127 58.7878C50.2985 59.2736 48.7106 59.4813 47.1261 59.4813H19.0497C16.2558 59.4813 13.7835 58.8314 11.7568 57.612C10.4871 56.8482 10.2627 55.0894 11.204 53.9437C12.7785 52.0342 14.3329 50.118 15.9007 48.1851C18.8889 44.4867 20.9023 43.4147 23.1401 44.356C24.0479 44.7446 24.9591 45.3309 25.8971 45.9473C28.3962 47.6022 31.8702 49.8735 36.4463 47.4079C39.5742 45.6975 41.39 42.7707 42.9704 40.2232L43.0022 40.1719C43.1086 40.0014 43.214 39.831 43.3191 39.6611C43.8565 38.7928 44.3858 37.9375 44.9854 37.1502C45.7291 36.1753 48.4895 33.1268 52.0573 35.2976C54.3319 36.6644 56.2448 38.5136 58.2916 40.4935Z" fill="#7FA8F6" fill-opacity="0.5"/>
</svg>
